<?xml version="1.0" standalone="no"?>
<!DOCTYPE svg PUBLIC "-//W3C//DTD SVG 20010904//EN"
 "http://www.w3.org/TR/2001/REC-SVG-20010904/DTD/svg10.dtd">
<svg version="1.0" xmlns="http://www.w3.org/2000/svg"
 width="1280.000000pt" height="640.000000pt" viewBox="0 0 1280.000000 640.000000"
 preserveAspectRatio="xMidYMid meet">
<metadata>
Created by potrace 1.15, written by Peter Selinger 2001-2017
</metadata>
<g transform="translate(0.000000,640.000000) scale(0.100000,-0.100000)"
fill="#000000" stroke="none">
<path d="M6178 6190 c-110 -23 -193 -50 -338 -111 -174 -73 -211 -112 -246
-255 -9 -38 -27 -89 -40 -114 -27 -55 -91 -120 -97 -99 -15 50 -71 209 -104
288 -46 116 -125 209 -201 238 -92 35 -470 10 -564 -38 -59 -30 -160 -134
-192 -197 -35 -69 -59 -176 -87 -376 -12 -91 -25 -166 -29 -166 -5 0 -17 15
-28 34 -36 61 -377 430 -455 493 -164 132 -294 159 -444 93 -96 -42 -233 -156
-361 -300 -143 -161 -156 -194 -171 -450 -7 -119 -14 -166 -29 -202 -11 -25
-24 -68 -28 -95 -3 -26 -15 -65 -26 -86 -10 -21 -22 -60 -25 -86 -5 -45 -3
-51 31 -88 35 -40 63 -55 119 -67 34 -8 34 -23 -2 -72 -79 -108 -334 -187
-606 -187 -162 0 -217 18 -303 98 -77 71 -117 141 -136 240 -9 44 -22 85 -29
92 -9 9 -29 7 -84 -7 -95 -25 -117 -17 -209 69 -40 39 -95 81 -122 95 -28 14
-70 49 -98 82 -90 104 -113 123 -167 139 -101 29 -243 48 -358 49 l-115 1 -85
-42 c-146 -73 -250 -161 -361 -307 -125 -164 -183 -277 -182 -355 1 -69 79
-292 160 -458 61 -126 119 -196 279 -332 107 -92 155 -125 255 -175 108 -54
369 -230 480 -324 91 -76 194 -188 292 -317 25 -33 76 -96 112 -140 55 -66 89
-124 192 -332 163 -329 174 -362 268 -781 54 -237 68 -323 96 -567 34 -300 57
-411 120 -573 l31 -80 87 -6 c48 -4 355 -13 682 -21 646 -16 725 -22 833 -59
51 -17 112 -28 207 -36 380 -30 356 -27 574 -84 135 -36 253 -36 351 0 106 38
181 61 280 84 50 11 131 34 181 50 141 45 290 64 509 64 147 0 204 -3 250 -16
90 -25 180 -31 277 -18 107 13 117 17 129 47 18 48 55 43 149 -19 l65 -42 225
-7 c276 -9 358 -15 480 -36 120 -20 191 -14 395 31 203 45 341 62 585 75 598
32 695 49 1305 222 154 44 309 91 345 105 107 43 284 133 324 165 89 74 141
257 156 551 5 97 16 216 25 266 26 151 45 309 51 436 l6 121 -34 50 c-67 96
-84 149 -55 173 7 6 39 20 72 33 77 29 164 116 267 270 42 62 100 141 128 174
66 77 133 175 200 295 87 156 169 268 279 382 126 131 168 154 371 202 223 53
411 125 505 194 83 59 231 298 278 447 20 63 22 90 21 265 -1 182 -2 201 -28
285 -14 50 -50 137 -79 195 -58 117 -82 140 -230 222 -216 119 -296 119 -622
-3 -132 -50 -145 -53 -237 -53 -89 -1 -98 1 -122 23 -19 18 -26 35 -26 62 0
49 -30 144 -62 194 -38 61 -122 139 -181 169 -91 46 -181 60 -387 60 -156 0
-202 -4 -290 -23 -207 -45 -272 -87 -328 -208 -17 -38 -52 -153 -78 -258 -36
-144 -53 -195 -71 -213 -18 -18 -27 -21 -42 -13 -22 12 -27 36 -46 216 -20
183 -46 290 -101 400 -80 164 -199 269 -340 300 -62 14 -112 16 -287 12 -223
-5 -235 -7 -426 -68 -138 -44 -175 -65 -257 -141 -74 -68 -110 -83 -131 -55
-6 6 -21 43 -34 82 -34 98 -90 156 -181 183 -94 29 -283 45 -498 40 l-185 -3
-65 -35 c-88 -47 -202 -163 -263 -268 -45 -76 -69 -102 -96 -102 -6 0 -66 55
-133 123 -127 127 -254 223 -370 277 -61 29 -68 30 -198 29 -90 0 -164 -6
-222 -19z m1823 -369 c72 -22 347 -235 379 -295 18 -34 6 -70 -58 -178 -59
-100 -120 -161 -218 -220 -117 -70 -179 -89 -314 -95 -168 -8 -217 4 -308 74
-41 32 -83 71 -93 87 -24 40 -52 203 -47 274 11 159 165 335 316 362 60 11
296 5 343 -9z m-2890 -43 c69 -41 166 -151 205 -232 59 -124 71 -373 24 -470
-25 -53 -67 -87 -164 -131 -130 -61 -247 -64 -383 -13 -72 27 -136 89 -197
194 -85 144 -109 278 -84 464 l13 95 115 52 c139 62 183 72 320 70 94 -2 110
-5 151 -29z m1394 0 c93 -27 146 -57 203 -115 73 -73 112 -149 112 -218 0 -69
-25 -160 -55 -199 -13 -17 -40 -66 -58 -106 -19 -41 -43 -82 -53 -91 -11 -9
-63 -40 -117 -68 -94 -49 -101 -51 -179 -51 -62 0 -100 7 -168 30 -190 63
-303 139 -336 225 -13 35 -16 64 -11 128 10 150 82 313 186 420 l66 69 180 -5
c112 -3 199 -11 230 -19z m2855 -8 c83 -16 155 -54 221 -117 81 -77 97 -111
110 -236 19 -176 -14 -260 -154 -395 -104 -99 -219 -135 -438 -136 -123 -1
-126 0 -163 28 -50 37 -131 149 -151 206 -26 73 -29 165 -10 265 29 159 59
205 181 281 150 93 281 127 404 104z m-5728 -140 c192 -14 217 -33 322 -239
74 -144 88 -200 89 -335 0 -129 -11 -159 -92 -248 -55 -60 -118 -98 -203 -123
-56 -16 -60 -16 -165 10 -201 48 -308 124 -380 272 -35 73 -38 84 -38 168 0
191 8 321 21 346 17 35 84 93 136 120 71 36 140 43 310 29z m7461 -43 c86 -31
153 -75 215 -141 46 -49 51 -57 57 -117 9 -88 -10 -222 -42 -289 -17 -37 -57
-86 -117 -146 -103 -103 -163 -137 -274 -156 -61 -10 -79 -9 -134 6 -34 10
-97 21 -140 26 -122 14 -193 62 -244 162 -49 97 -71 289 -41 361 23 55 132
181 184 215 58 38 191 88 266 102 79 14 195 4 270 -23z m-4033 -202 c0 -14 -4
-25 -9 -25 -12 0 -23 29 -15 41 10 18 24 9 24 -16z m5310 -269 c201 -69 213
-86 218 -314 5 -199 -3 -234 -68 -305 -50 -54 -222 -164 -300 -192 -92 -33
-252 -15 -361 40 -170 87 -239 223 -217 431 14 134 59 202 181 278 135 84 215
108 348 102 78 -3 116 -11 199 -40z m-5181 -61 c12 -25 21 -50 21 -55 0 -28
40 -82 120 -165 48 -49 94 -101 103 -115 37 -54 9 -189 -58 -280 -44 -61 -187
-196 -251 -238 -66 -44 -113 -56 -229 -56 -112 0 -132 7 -262 89 -80 51 -187
160 -223 228 -23 44 -23 44 -4 77 11 20 49 51 96 79 42 25 80 49 84 54 4 4 11
32 15 63 11 80 26 93 107 91 90 -2 150 31 249 138 85 92 144 135 183 135 23 0
31 -8 49 -45z m1235 -29 c19 -19 49 -63 68 -98 22 -42 72 -103 150 -185 69
-70 118 -129 118 -141 0 -43 -97 -145 -189 -200 -112 -66 -286 -103 -386 -82
-81 17 -218 76 -290 125 -96 66 -205 217 -191 263 4 12 36 30 94 52 168 63
353 165 473 260 67 52 105 54 153 6z m1555 -100 c18 -8 32 -36 60 -116 21 -58
45 -117 55 -131 9 -15 46 -41 80 -57 35 -17 67 -36 71 -42 24 -39 -40 -137
-151 -231 -74 -63 -148 -102 -260 -134 -100 -29 -152 -31 -220 -9 -31 10 -107
19 -204 23 -176 8 -236 26 -290 88 -56 63 -33 129 73 209 70 52 129 84 204
108 63 21 174 92 303 194 147 116 202 136 279 98z m-8771 -42 c93 -77 204
-189 224 -228 25 -49 35 -198 19 -277 -28 -135 -178 -318 -321 -393 -63 -34
-84 -40 -135 -40 -75 1 -157 40 -239 115 -64 58 -168 208 -218 314 -29 61 -33
80 -33 150 0 69 5 90 32 147 50 106 144 196 252 240 40 16 66 18 209 14 l162
-4 48 -38z m4482 -85 c147 -117 222 -166 280 -183 95 -28 153 -76 143 -116 -3
-11 -32 -50 -64 -86 -32 -37 -59 -73 -59 -81 0 -24 -60 -101 -109 -138 -69
-54 -133 -69 -271 -62 -146 8 -232 23 -273 51 -21 14 -47 50 -74 104 -36 70
-43 92 -43 142 0 115 68 256 154 317 30 21 82 62 116 91 33 28 67 52 73 52 7
0 64 -41 127 -91z m-1375 6 c3 -19 7 -50 10 -69 8 -50 37 -81 115 -122 138
-72 290 -226 290 -293 0 -55 -131 -293 -203 -368 -46 -49 -112 -67 -242 -67
-121 0 -163 13 -216 71 -81 86 -129 284 -98 396 5 21 42 106 80 190 61 133 77
159 126 206 53 50 109 91 125 91 4 0 10 -16 13 -35z m6942 -194 c49 -30 80
-94 92 -186 5 -44 19 -122 30 -172 12 -51 21 -109 21 -129 0 -35 -1 -36 -95
-80 -231 -108 -332 -133 -459 -115 -81 12 -122 39 -177 121 -81 120 -111 290
-60 344 27 29 102 48 275 70 133 18 217 55 273 122 42 49 54 52 100 25z
m-8105 -136 c87 -41 215 -98 285 -126 154 -61 189 -89 187 -152 -2 -52 -33
-145 -87 -257 -44 -90 -141 -201 -204 -234 -48 -24 -150 -36 -326 -36 -218 0
-229 7 -313 183 -21 44 -39 101 -42 128 l-5 49 82 82 c45 44 90 97 100 117 15
29 64 178 88 266 8 30 34 55 57 55 11 0 91 -34 178 -75z m-1285 -212 c129
-153 173 -183 313 -213 49 -10 103 -26 120 -35 41 -21 70 -84 70 -155 0 -46
-6 -65 -36 -115 -20 -33 -56 -102 -80 -154 -59 -125 -105 -187 -163 -215 -25
-12 -66 -34 -91 -48 -59 -34 -128 -55 -223 -68 l-79 -10 -116 108 c-138 127
-173 154 -244 191 -51 26 -53 28 -52 68 1 57 56 131 252 335 148 154 162 172
192 245 39 95 56 123 75 123 7 0 35 -26 62 -57z m5757 -164 c15 -11 53 -55 85
-97 75 -99 105 -126 164 -152 61 -27 170 -37 233 -21 27 7 91 37 143 67 53 30
101 54 109 54 7 0 58 21 114 46 158 73 250 90 321 60 18 -7 84 -54 147 -105
129 -103 260 -173 356 -191 37 -7 131 -11 240 -8 l180 3 99 67 c55 36 134 80
175 97 42 17 111 51 154 76 44 25 82 45 86 45 4 0 29 -82 55 -181 54 -200 77
-244 145 -279 111 -56 299 -69 445 -30 143 39 162 42 184 30 29 -15 28 -72 -4
-196 -36 -144 -68 -176 -189 -195 -63 -10 -76 -8 -289 44 -276 69 -501 117
-727 156 -300 53 -378 62 -610 71 -160 6 -262 15 -355 32 l-130 23 -1045 0
c-1209 0 -1460 -9 -1980 -70 -113 -13 -284 -31 -380 -40 -96 -9 -238 -25 -314
-35 -77 -11 -200 -25 -275 -31 -75 -6 -188 -21 -251 -34 -63 -13 -173 -31
-245 -40 -71 -9 -211 -36 -310 -60 -99 -25 -281 -63 -405 -85 -446 -79 -883
-172 -1007 -214 -37 -13 -113 -43 -168 -67 -88 -38 -111 -43 -191 -47 -97 -5
-169 10 -249 50 -82 41 -99 72 -70 128 14 28 33 37 140 70 66 20 136 72 278
208 74 71 155 139 179 150 71 35 135 36 321 8 207 -32 229 -32 380 -1 185 38
247 60 315 109 73 54 138 88 235 123 40 14 93 36 119 49 26 13 52 24 57 24 5
0 41 -25 80 -56 89 -69 138 -91 237 -105 147 -21 313 11 396 75 24 18 93 83
153 145 61 62 125 122 143 133 41 25 65 21 186 -33 179 -81 414 -121 589 -100
161 19 229 57 307 171 62 91 78 100 176 100 99 0 119 -7 198 -66 82 -62 162
-101 255 -125 124 -32 382 -61 506 -57 102 3 116 6 180 37 83 41 167 122 209
201 51 96 71 108 120 69z m-284 -844 c107 -8 254 -22 325 -31 141 -17 216 -15
340 10 56 12 159 19 345 23 427 9 843 -21 1199 -87 91 -17 233 -40 315 -51
400 -55 578 -92 692 -144 87 -40 116 -73 112 -129 l-3 -41 -55 3 c-277 12
-408 1 -595 -53 -101 -30 -124 -43 -159 -93 -52 -75 -70 -146 -70 -277 -1
-106 2 -125 23 -168 56 -114 163 -198 323 -253 123 -42 314 -133 346 -164 13
-12 28 -34 33 -48 9 -23 7 -30 -15 -49 -15 -12 -43 -25 -64 -29 -72 -14 -370
23 -862 107 -228 39 -260 42 -465 44 -177 3 -240 7 -325 25 -212 43 -1164 49
-2485 15 -656 -17 -735 -21 -812 -41 -127 -33 -260 -30 -291 7 -40 46 -102 43
-294 -14 -48 -14 -132 -31 -186 -36 -69 -7 -123 -20 -177 -42 -81 -32 -91 -33
-435 -64 -96 -9 -240 -27 -319 -41 -157 -26 -246 -31 -257 -12 -4 7 10 26 36
48 42 36 44 40 48 104 2 36 1 86 -2 110 -9 59 -36 70 -173 70 -121 1 -133 -6
-133 -84 0 -69 26 -134 77 -190 43 -48 45 -52 29 -69 -37 -40 -200 -110 -331
-141 -166 -39 -320 -85 -415 -123 -98 -39 -137 -47 -166 -36 -31 11 -31 43 0
74 13 13 60 42 103 64 74 37 126 75 287 210 33 28 101 70 152 95 50 25 95 53
98 63 4 10 10 86 13 169 l6 151 -125 66 -124 66 -315 -6 c-344 -7 -382 -3
-400 44 -10 28 -12 119 -3 186 l7 47 104 40 c169 66 280 96 443 120 41 6 170
33 285 60 116 27 269 58 340 70 72 11 254 47 405 80 151 32 311 64 355 70 44
7 136 25 205 40 278 63 508 92 830 105 238 10 426 23 1044 76 903 76 868 75
1136 54z m-4583 -1310 c27 -24 27 -26 9 -39 -24 -20 -119 -31 -159 -19 -71 20
-10 83 80 83 31 0 49 -7 70 -25z m5453 -370 c190 -8 532 -19 760 -25 272 -6
449 -15 515 -25 125 -19 371 -79 391 -96 8 -7 14 -22 12 -33 -8 -57 -181 -84
-421 -67 -391 29 -469 33 -562 29 -89 -4 -110 -9 -185 -42 -148 -66 -227 -88
-330 -93 -119 -5 -158 10 -175 72 -15 55 -66 83 -177 95 -107 13 -961 12
-1363 0 -350 -11 -412 -21 -545 -87 l-75 -38 1 -80 c0 -44 4 -123 9 -176 9
-114 -1 -155 -51 -199 -41 -35 -152 -93 -210 -109 -22 -6 -150 -15 -285 -21
-144 -6 -340 -23 -479 -40 -292 -36 -536 -53 -679 -48 -112 3 -137 12 -125 41
11 30 55 48 138 57 45 5 109 18 141 30 86 32 156 47 275 60 58 6 146 20 195
30 89 18 350 52 495 65 172 15 293 35 311 51 26 24 24 77 -3 109 -20 22 -36
27 -133 40 -60 7 -178 17 -261 20 l-151 7 -6 72 c-6 89 -21 120 -66 149 -53
32 -214 37 -332 8 -48 -11 -140 -29 -206 -40 -66 -11 -151 -32 -189 -46 -125
-48 -151 -53 -311 -70 -181 -19 -227 -27 -321 -55 -37 -11 -126 -29 -199 -40
-73 -11 -174 -33 -225 -50 -51 -17 -127 -39 -168 -50 -41 -11 -108 -31 -148
-44 -152 -52 -346 -58 -399 -11 -30 25 -35 70 -11 107 37 56 168 102 378 133
117 17 206 39 301 74 31 11 114 29 185 40 71 11 155 29 186 41 61 21 174 39
409 65 80 8 170 22 200 30 30 8 122 31 204 50 83 19 180 44 215 55 38 12 116
25 185 30 66 5 622 14 1235 20 613 6 1122 12 1130 14 42 10 618 4 920 -9z
m-1517 -436 c20 -5 37 -14 37 -19 0 -5 -24 -21 -54 -35 -63 -30 -89 -63 -89
-115 0 -95 34 -105 328 -97 121 4 308 13 415 21 282 22 572 35 920 41 168 4
355 13 415 20 177 23 449 36 772 38 277 2 304 1 320 -16 14 -13 15 -21 7 -35
-25 -39 -42 -43 -471 -87 -84 -9 -228 -30 -320 -47 -163 -29 -175 -30 -373
-25 -212 6 -295 2 -590 -32 -298 -34 -649 -61 -872 -66 -117 -3 -258 -13 -313
-21 -169 -26 -227 -29 -263 -10 -43 22 -49 37 -57 141 -8 110 -19 155 -45 188
-26 33 -25 49 6 87 30 35 67 56 121 69 52 12 63 12 106 0z m-1773 -99 c24 -17
-12 -37 -78 -45 -84 -9 -141 17 -94 44 22 13 152 14 172 1z m-357 -17 c-13 -2
-35 -2 -50 0 -16 2 -5 4 22 4 28 0 40 -2 28 -4z m-859 -159 c20 -8 21 -48 1
-64 -34 -28 -69 18 -40 50 21 23 18 22 39 14z"/>
<path d="M8377 2970 c-171 -27 -293 -75 -349 -138 -69 -76 -98 -152 -127 -336
-27 -165 -27 -203 0 -211 11 -4 42 -26 70 -50 59 -53 78 -64 143 -81 28 -7 94
-25 146 -40 88 -25 109 -27 290 -28 147 0 217 4 283 17 167 33 335 107 401
176 35 36 40 47 44 100 5 72 -12 128 -81 266 -59 119 -149 216 -238 258 -112
52 -191 68 -364 72 -88 2 -186 0 -218 -5z m402 -210 c123 -10 149 -20 181 -73
38 -61 21 -94 -63 -123 -42 -14 -61 -14 -258 6 -117 12 -223 26 -236 31 -49
18 -13 127 51 155 37 16 164 18 325 4z"/>
<path d="M6264 2926 c-161 -31 -267 -74 -401 -163 -48 -33 -114 -74 -145 -91
-75 -43 -113 -88 -128 -152 -17 -73 -7 -177 24 -245 27 -59 59 -81 192 -131
195 -73 394 -98 733 -92 215 4 230 6 306 32 159 54 290 151 338 250 62 127 71
252 24 345 -29 59 -60 80 -133 90 -38 6 -106 31 -189 69 -71 33 -155 68 -185
77 -74 23 -337 30 -436 11z m551 -186 c52 -12 67 -33 63 -95 -3 -49 -4 -50
-43 -64 -30 -10 -120 -13 -352 -15 -269 -1 -314 1 -328 14 -39 40 60 99 217
130 165 33 372 47 443 30z"/>
<path d="M7518 2923 c-33 -39 -42 -71 -46 -178 -5 -127 9 -180 51 -190 29 -8
130 40 164 76 68 74 54 202 -31 277 -29 25 -45 32 -80 32 -28 0 -48 -6 -58
-17z"/>
<path d="M9451 2860 c-21 -32 -44 -79 -50 -104 -15 -61 -31 -298 -31 -471 0
-161 6 -178 72 -196 80 -21 174 7 208 64 41 66 18 142 -61 209 l-49 41 29 52
c67 119 95 294 58 362 -33 61 -77 103 -108 103 -25 0 -35 -9 -68 -60z"/>
<path d="M4365 2664 c-285 -49 -409 -90 -482 -160 -58 -55 -66 -93 -61 -299 3
-158 5 -174 28 -220 22 -44 32 -53 80 -72 30 -12 107 -29 170 -38 63 -8 162
-23 220 -32 58 -9 125 -16 150 -16 63 2 224 55 295 99 33 20 79 45 103 55 69
30 162 148 162 206 0 12 9 43 21 69 26 62 26 61 -107 230 -110 140 -146 173
-203 193 -55 18 -224 12 -376 -15z m292 -217 c38 -10 53 -20 76 -54 35 -49 32
-83 -9 -102 -72 -33 -449 -46 -515 -18 -20 8 -40 20 -44 27 -13 21 5 58 57
115 l52 58 168 -8 c93 -3 189 -12 215 -18z"/>
<path d="M5215 2661 c-44 -18 -57 -47 -67 -143 -5 -51 -13 -109 -18 -128 -16
-59 -16 -60 56 -60 74 0 150 19 209 53 39 22 40 25 39 73 -2 55 -37 135 -76
171 -41 39 -98 52 -143 34z"/>
<path d="M3260 2458 c-90 -61 -104 -182 -37 -320 23 -48 45 -79 58 -83 27 -9
144 20 194 48 51 28 75 76 75 147 0 119 -43 185 -140 214 -73 22 -111 20 -150
-6z"/>
<path d="M7643 2380 c-67 -10 -125 -39 -140 -70 -16 -31 -16 -104 0 -150 10
-28 20 -37 54 -48 50 -16 129 -4 180 28 40 24 85 84 103 139 12 39 12 43 -10
66 -31 34 -104 47 -187 35z"/>
<path d="M5251 2141 c-16 -16 -21 -33 -21 -77 0 -80 10 -94 71 -94 80 0 145
46 155 111 9 53 -20 73 -111 77 -64 4 -76 1 -94 -17z"/>
<path d="M2035 5691 c-174 -63 -296 -174 -345 -314 -43 -123 -43 -403 0 -492
23 -47 63 -80 86 -71 26 10 52 67 59 130 4 40 16 79 33 109 40 68 155 211 195
241 43 33 121 47 197 36 73 -11 74 -11 238 -93 120 -60 150 -71 194 -72 51 0
52 1 61 35 37 141 -67 329 -226 404 -40 19 -123 50 -184 70 -132 42 -225 47
-308 17z"/>
</g>
</svg>
